<svg xmlns="http://www.w3.org/2000/svg" xmlns:xlink="http://www.w3.org/1999/xlink" preserveAspectRatio="xMidYMid meet" version="1.0" viewBox="0.0 -0.1 392.9 493.0" zoomAndPan="magnify" style="fill: rgb(0, 0, 0);" role="img" aria-label="Delivering Fragile Package"><g><g id="__id246_s6abr12nr"><path d="M126.496 418.32L138.584 398.135 88.693 368.26 79.919 383.018 104.064 419.508 121.393 425.97 126.496 418.32" style="fill: rgb(170, 99, 115);"></path></g><g id="__id247_s6abr12nr"><path d="M79.919,383.018l-25.254,41.536l93.808,57.035l3.269-5.316c7.146-11.621,4.193-26.78-6.793-34.869l0,0 c-8.694-6.402-14.752-15.758-17.035-26.311l0,0c0,0-6.636,5.485-20.459-1.876C98.531,408.463,92.535,391.499,79.919,383.018z" style="fill: rgb(216, 219, 226);"></path></g><g id="__id248_s6abr12nr"><path d="M239.425,252.782l-92.328,156.346l-61.207-36.145l125.782-212.995l4.558,2.692 C247.515,181.155,257.9,221.495,239.425,252.782z M47.864,435.741l93.835,57.051l7.239-11.907l-93.835-57.051L47.864,435.741z" style="fill: rgb(43, 81, 154);"></path></g><g id="__id249_s6abr12nr"><path d="M150.361,429.375l-14.546-2.402l14.636-1.779c2.503-0.304,4.616-1.858,5.651-4.158 c1.035-2.3,0.798-4.911-0.634-6.987c-1.235-1.789-3.187-2.907-5.355-3.066c-2.165-0.155-4.262,0.662-5.746,2.251l-12.003,12.864 c-0.753-1.199-2.641-4.669-3.96-11.106c-0.055-0.271-0.317-0.445-0.59-0.39c-0.271,0.056-0.445,0.32-0.389,0.591 c1.321,6.446,3.182,9.98,4.031,11.348l-9.853,1.73c-0.272,0.048-0.454,0.307-0.406,0.579c0.043,0.242,0.254,0.413,0.492,0.413 c0.029,0,0.058-0.002,0.087-0.008l10.331-1.814l3.366,3.932c-0.037-0.002-0.072-0.01-0.11-0.003l-10.366,1.746 c-0.272,0.046-0.456,0.304-0.41,0.576c0.041,0.244,0.253,0.417,0.493,0.417c0.027,0,0.056-0.002,0.083-0.007l10.366-1.746 c0.227-0.038,0.383-0.225,0.406-0.443l3.47,4.054c-0.059-0.012-0.12-0.016-0.184-0.005l-11.752,1.941 c-0.272,0.045-0.457,0.302-0.412,0.574c0.041,0.245,0.252,0.419,0.493,0.419c0.027,0,0.054-0.002,0.082-0.007l11.752-1.941 c0.256-0.042,0.427-0.273,0.41-0.528l3.977,4.646c1.377,1.609,3.336,2.5,5.402,2.5c0.394,0,0.792-0.032,1.19-0.099 c2.488-0.412,4.532-2.057,5.466-4.398c0.806-2.02,0.655-4.264-0.413-6.157S152.506,429.729,150.361,429.375z M145.099,413.915 c1.171-1.255,2.784-1.952,4.483-1.952c0.152,0,0.305,0.006,0.458,0.017c1.865,0.138,3.543,1.099,4.605,2.638 c1.232,1.785,1.436,4.031,0.546,6.009c-0.89,1.978-2.707,3.314-4.86,3.576l-16.727,2.032L145.099,413.915z M154.902,438.698 c-0.804,2.015-2.561,3.429-4.701,3.783c-2.142,0.355-4.259-0.418-5.669-2.065l-10.958-12.8l16.624,2.745 c1.845,0.305,3.43,1.414,4.349,3.042S155.595,436.962,154.902,438.698z M83.23,409.085c-2.113-0.35-4.236,0.146-5.977,1.392 c-1.741,1.248-2.893,3.099-3.242,5.211c-0.35,2.113,0.145,4.236,1.392,5.978s3.098,2.893,5.211,3.241 c0.442,0.073,0.886,0.109,1.326,0.109c1.66,0,3.275-0.516,4.651-1.501c1.741-1.248,2.893-3.099,3.242-5.211 c0.35-2.113-0.145-4.236-1.392-5.978S85.343,409.433,83.23,409.085z M88.846,418.139c-0.306,1.851-1.313,3.47-2.838,4.562 c-1.523,1.093-3.38,1.522-5.231,1.219c-1.85-0.306-3.469-1.313-4.561-2.837c-1.092-1.524-1.524-3.383-1.219-5.231 c0.306-1.851,1.313-3.47,2.838-4.562c1.205-0.863,2.618-1.314,4.071-1.314c0.385,0,0.773,0.032,1.16,0.096 c1.85,0.306,3.47,1.313,4.561,2.837C88.719,414.432,89.152,416.29,88.846,418.139z" style="fill: rgb(255, 166, 48);"></path></g></g><g><g id="__id250_s6abr12nr"><path d="M313.635 417.281L303.143 396.223 251.095 422.16 258.802 437.503 302.551 436.819 317.331 425.701 313.635 417.281" style="fill: rgb(170, 99, 115);"></path></g><g id="__id251_s6abr12nr"><path d="M258.802,437.503l21.388,43.652l98.588-48.305l-2.718-5.618c-5.941-12.281-20.303-17.959-33.036-13.062h0 c-10.077,3.876-21.223,3.939-31.344,0.177h0c0,0,1.046,8.546-12.603,16.226C290.266,435.53,272.743,431.443,258.802,437.503z" style="fill: rgb(216, 219, 226);"></path></g><g id="__id252_s6abr12nr"><path d="M304.555,399.014l-63.425,32.093L146.34,243.776c-9.329-18.438-1.946-40.947,16.492-50.276l30.041-15.201 L304.555,399.014z M378.436,432.08l-98.616,48.319l6.131,12.513l98.616-48.319L378.436,432.08z" style="fill: rgb(43, 81, 154);"></path></g><g id="__id253_s6abr12nr"><path d="M346.919,403.745c-1.268-1.768-3.239-2.849-5.41-2.969c-2.172-0.109-4.25,0.739-5.703,2.355l-9.861,10.961 l6.387-13.289c1.093-2.273,0.921-4.891-0.459-7.002c-1.379-2.11-3.69-3.311-6.229-3.23c-2.173,0.076-4.165,1.118-5.468,2.859 s-1.74,3.947-1.2,6.053l4.372,17.044c-1.416-0.011-5.359-0.292-11.489-2.648c-0.26-0.097-0.548,0.03-0.646,0.287 c-0.099,0.258,0.029,0.548,0.287,0.646c6.143,2.359,10.124,2.696,11.733,2.717l-3.852,9.233c-0.105,0.255,0.015,0.548,0.27,0.654 c0.062,0.025,0.128,0.038,0.192,0.038c0.195,0,0.382-0.115,0.462-0.308l4.038-9.681l5.126-0.718 c-0.022,0.03-0.048,0.056-0.063,0.091l-4.112,9.674c-0.108,0.254,0.01,0.548,0.265,0.655c0.063,0.027,0.13,0.04,0.195,0.04 c0.194,0,0.379-0.114,0.46-0.305l4.112-9.674c0.09-0.211,0.017-0.444-0.155-0.58l5.287-0.74c-0.043,0.043-0.08,0.093-0.106,0.152 l-4.695,10.947c-0.108,0.254,0.009,0.548,0.263,0.657c0.064,0.027,0.131,0.04,0.197,0.04c0.193,0,0.378-0.113,0.46-0.303 l4.695-10.947c0.102-0.238,0-0.507-0.223-0.63l6.056-0.848c2.497-0.35,4.581-1.942,5.574-4.26 C348.673,408.402,348.389,405.795,346.919,403.745z M320.978,394.029c1.12-1.497,2.834-2.393,4.702-2.458 c0.074-0.003,0.148-0.004,0.222-0.004c2.082,0,3.989,1.028,5.135,2.781c1.187,1.815,1.334,4.066,0.396,6.021l-7.3,15.187 l-4.187-16.321C319.481,397.423,319.857,395.527,320.978,394.029z M346.761,410.327c-0.854,1.993-2.646,3.362-4.794,3.663 l-16.687,2.336l11.27-12.526c1.173-1.304,2.819-2.034,4.56-2.034c0.114,0,0.229,0.003,0.344,0.01 c1.867,0.103,3.563,1.033,4.653,2.552C347.371,406.09,347.616,408.333,346.761,410.327z M293.871,448.16L293.871,448.16 c-1.593-1.433-3.658-2.146-5.786-2.047c-2.14,0.113-4.106,1.052-5.539,2.644c-1.433,1.593-2.159,3.646-2.047,5.785 c0.113,2.14,1.052,4.106,2.644,5.539c1.484,1.336,3.371,2.059,5.354,2.059c0.143,0,0.287-0.004,0.431-0.012 c2.139-0.112,4.106-1.051,5.539-2.643c1.433-1.593,2.16-3.647,2.047-5.786C296.401,451.56,295.462,449.593,293.871,448.16z M293.722,458.815c-1.254,1.394-2.976,2.216-4.847,2.314c-1.89,0.087-3.671-0.539-5.064-1.793s-2.215-2.975-2.313-4.847 s0.538-3.671,1.792-5.064s2.975-2.215,4.848-2.313c0.126-0.007,0.252-0.01,0.377-0.01c1.735,0,3.388,0.632,4.687,1.802 c1.394,1.254,2.216,2.976,2.314,4.848S294.977,457.422,293.722,458.815z" style="fill: rgb(255, 166, 48);"></path></g></g><g><g id="__id254_s6abr12nr"><path d="M254.098 67.549L285.35 113.008 247.293 157.348 229.567 142.583 215.068 62.53" style="fill: rgb(216, 219, 226);"></path></g><g id="__id255_s6abr12nr"><path d="M386.006,57.441l-0.618-0.042l2.498,3.407c1.621,2.21,1.118,5.32-1.117,6.907 c-1.69,1.2-3.952,1.21-5.652,0.024l-4.746-3.31l3.154,4.31c1.544,2.11,1.022,5.082-1.15,6.539 c-2.092,1.403-4.926,0.874-6.348-1.205c-0.595-0.87-1.266-1.808-1.972-2.723c-1.972-2.722-12.169,9.829-12.169,9.829 l-56.259,73.137c-15.833,23.502-48.652,27.871-70.082,9.329l-0.697-0.603l46.946-48.797l-6.111-3.095l49.619-44.645 c1.616-1.467,3.712-3.359,6.163-5.545l0.01-0.009l0,0c2.992-2.669,6.507-5.771,10.317-9.07l0,0l0,0 c13.518-11.705,30.706-25.848,41.109-31.612c2.165-1.199,4.887-0.409,6.034,1.785c0.961,1.839,0.5,4.1-1.106,5.415l-15.135,12.398 c0,0,9.67-3.566,17.251,4.513l4.33,4.97c0.162,0.186,0.309,0.38,0.441,0.58C392.929,53.277,390.009,57.71,386.006,57.441z" style="fill: rgb(170, 99, 115);"></path></g><g id="__id256_s6abr12nr"><path d="M385.694,57.005l-4.493-3.478c0.551-0.361,1.041-0.706,1.465-1.022c1.844-1.378,2.483-3.894,1.507-6.01 c-0.225-0.488-0.536-0.906-0.889-1.278c-0.028-0.045-0.063-0.082-0.103-0.116c-1.349-1.336-3.419-1.826-5.302-1.088 c-4.968,1.942-9.818,2.403-11.573,2.511c0.339-1.042,1.163-3.287,2.832-6.421c0.13-0.244,0.037-0.546-0.206-0.676 c-0.241-0.127-0.546-0.038-0.677,0.207c-2.408,4.523-3.087,7.19-3.115,7.302c-0.037,0.15-0.003,0.31,0.094,0.432 c0.097,0.122,0.228,0.172,0.399,0.189c0.252-0.004,6.242-0.122,12.609-2.61c1.192-0.464,2.469-0.319,3.486,0.287 c-2.723,0.734-4.425,1.956-5.051,3.646c-0.923,2.496,0.846,5.056,1.143,5.459c-3.764,1.94-9.208,3.834-16.316,4.012 c-0.275,0.007-0.494,0.236-0.487,0.513c0.007,0.271,0.229,0.487,0.5,0.487c0.004,0,0.008,0,0.013,0 c3.531-0.088,6.658-0.595,9.392-1.317l5.05,6.699c0.099,0.13,0.248,0.199,0.399,0.199c0.105,0,0.211-0.033,0.301-0.101 c0.221-0.167,0.265-0.48,0.099-0.7l-4.812-6.383c3.491-1.028,6.274-2.395,8.341-3.651l4.782,3.702 c0.091,0.07,0.198,0.104,0.306,0.104c0.149,0,0.297-0.067,0.396-0.194C385.953,57.488,385.913,57.173,385.694,57.005z M378.651,53.776c-0.019-0.024-1.829-2.417-1.034-4.557c0.556-1.495,2.262-2.564,5.053-3.189c0.236,0.272,0.45,0.569,0.608,0.912 c0.767,1.661,0.257,3.664-1.212,4.761c-0.852,0.637-1.982,1.393-3.371,2.163C378.681,53.836,378.672,53.804,378.651,53.776z" style="fill: rgb(48, 1, 30);"></path></g></g><g id="__id257_s6abr12nr"><path d="M137.933,97.713l-34.46-43.621l15.494-7.988c24.184-12.468,52.339-14.784,78.235-6.437l35.449,11.637 c16.286,5.346,27.59,20.179,28.427,37.3l5.8,118.705L137.933,97.713z" style="fill: rgb(216, 219, 226);"></path></g><g id="__id258_s6abr12nr"><path d="M4.732 98.455H281.757V213.49200000000002H4.732z" transform="rotate(5.315 143.286 156.01)" style="fill: rgb(255, 166, 48);"></path></g><g><g id="__id259_s6abr12nr"><path d="M119.775,98.384L97.09,178.898l16.734,14.93c1.952,1.587,2.688,4.083,1.834,6.218 c-1.104,2.762-4.476,4.017-7.524,2.798l-0.033-0.013c-8.328-3.961-8.14-5.016-14.758-9.748c0,0-1.266,7.273,4.313,16.292 l12.207,1.26L102,215.076c1.981,2.158,4.397,4.348,7.352,6.505c1.973,1.44,2.598,3.944,1.452,5.86 c-1.134,1.903-3.661,2.626-5.892,1.735c-0.153-0.061-0.298-0.125-0.445-0.201c-3.676-1.864-8.963-4.852-12.62-8.201 c-1.87,0.992-4.15,1.047-6.151,0.247c-0.785-0.314-1.525-0.758-2.182-1.329c-1.396-1.222-2.716-2.555-3.179-3.581 c0,0-5.004,0.797-9.035-4.703c0,0-2.827,0.38-4.467-3.301c0,0-4.794-14.414-5.483-21.392c-1.333-9.682-1.134-22.843,2.464-40.747 l-0.004-0.005l9.608-53.076c3.077-17.142,14.383-31.675,30.241-38.874h0l34.272,43.701L119.775,98.384z" style="fill: rgb(170, 99, 115);"></path></g><g id="__id260_s6abr12nr"><path d="M92.229,220.45c0.178,0.21,0.152,0.526-0.058,0.705c-0.094,0.08-0.209,0.119-0.323,0.119 c-0.142,0-0.282-0.06-0.381-0.176c-0.218-0.257-5.358-6.386-7.498-15.376c-0.064-0.269,0.102-0.538,0.371-0.602 c0.27-0.061,0.539,0.102,0.602,0.371C87.023,214.237,92.177,220.389,92.229,220.45z M75.388,199.847 c-0.031-0.274-0.28-0.479-0.553-0.44c-0.274,0.031-0.472,0.279-0.44,0.553c1.059,9.334,5.475,16.351,5.52,16.42 c0.095,0.15,0.257,0.231,0.422,0.231c0.092,0,0.185-0.025,0.268-0.078c0.233-0.148,0.301-0.458,0.153-0.69 C80.715,215.774,76.421,208.942,75.388,199.847z M68.654,199.739c-0.025-0.275-0.259-0.477-0.543-0.453 c-0.275,0.025-0.478,0.269-0.453,0.543c0.58,6.349,3.087,11.576,3.194,11.795c0.086,0.178,0.265,0.282,0.45,0.282 c0.073,0,0.147-0.016,0.218-0.05c0.249-0.12,0.352-0.419,0.231-0.668C71.726,211.136,69.216,205.9,68.654,199.739z M115.188,200.704c-3.149-1.132-5.025-2.683-5.577-4.608c-0.734-2.561,1.154-4.996,1.173-5.021 c0.171-0.216,0.134-0.531-0.082-0.702c-0.217-0.17-0.53-0.134-0.702,0.082c-0.091,0.115-2.224,2.85-1.353,5.908 c0.643,2.257,2.729,4.034,6.202,5.283c0.056,0.02,0.113,0.029,0.169,0.029c0.205,0,0.397-0.127,0.471-0.331 C115.582,201.084,115.447,200.798,115.188,200.704z M103.731,215.682c-2.926-1.759-6.414-7.861-6.449-7.922 c-0.135-0.24-0.44-0.324-0.682-0.188c-0.24,0.136-0.324,0.441-0.188,0.682c0.147,0.26,3.652,6.391,6.803,8.286 c0.081,0.048,0.169,0.071,0.257,0.071c0.17,0,0.335-0.086,0.429-0.242C104.044,216.131,103.968,215.824,103.731,215.682z" style="fill: rgb(48, 1, 30);"></path></g></g><g><g id="__id261_s6abr12nr"><path d="M253.256,33.552l3.466-1.381l-6.114-14.554l-0.13-1.237l-13.905-3.049l-6.191,9.492 c-0.579-1.36-1.7-2.487-3.197-3.039c-2.895-1.067-6.111,0.416-7.178,3.311c-1.067,2.895,0.416,6.111,3.311,7.178 c0.654,0.241,1.322,0.351,1.978,0.344l-9.817,15.049l-3.357-1.102c0,0-4.967,13.958,8.402,24.059 c13.369,10.101,16.134-6.08,16.134-6.08l3.094-14.077l2.006,0.382c6.164,1.173,11.716-3.936,11.062-10.177l-0.129-1.224l1.731-0.74 L253.256,33.552z" style="fill: rgb(170, 99, 115);"></path></g><g id="__id262_s6abr12nr"><path d="M244.565,26.438c-0.089-0.474,0.056-0.933,0.348-1.273c-1.282,0.255-2.471,0.988-3.265,2.15 c-0.097,0.142-0.254,0.218-0.413,0.218c-0.098,0-0.195-0.028-0.282-0.087c-0.228-0.156-0.286-0.467-0.131-0.695 c1.919-2.81,5.765-3.538,8.578-1.619c0.228,0.156,0.286,0.467,0.131,0.695c-0.156,0.23-0.467,0.286-0.695,0.131 c-0.481-0.329-1.003-0.542-1.536-0.689c0.126,0.175,0.219,0.377,0.262,0.603c0.156,0.827-0.388,1.625-1.215,1.781 C245.518,27.81,244.721,27.265,244.565,26.438z M227.097,23.127c-0.012-0.014-0.024-0.027-0.038-0.04 c-1.343-1.307-2.74-1.747-2.832-1.775c-0.268-0.08-0.542,0.069-0.623,0.333c-0.081,0.263,0.067,0.542,0.331,0.624 c0.06,0.019,0.77,0.251,1.616,0.857c-1.892,0.517-2.951,2.139-3.003,2.221c-0.146,0.233-0.076,0.541,0.157,0.688 c0.083,0.052,0.175,0.077,0.266,0.077c0.166,0,0.328-0.083,0.424-0.232c0.012-0.019,1.181-1.799,3.134-1.903 c0.641,0.669,1.254,1.57,1.637,2.78c0.067,0.213,0.265,0.349,0.477,0.349c0.05,0,0.101-0.007,0.151-0.023 c0.263-0.083,0.408-0.364,0.325-0.627C228.652,24.981,227.885,23.905,227.097,23.127z M257.18,31.971l-6.782-15.55 c0.026-0.015,0.054-0.025,0.08-0.04l-0.088-1.038c-0.543-6.439-6.139-11.26-12.587-10.844c-4.374,0.282-8.237,2.953-10.045,6.946 l-3.678,8.122c0,0,4.094-0.997,6.302,3.257l1.16,3.07l4.47-9.39c0,0,7.949,2.812,13.494,0.37l6.539,14.995l-3.381,1.116 c-0.134,0.044-0.243,0.143-0.301,0.271c-0.057,0.128-0.058,0.275-0.001,0.404l1.191,2.718c-1.047,0.488-4.147,1.512-8.061-1.034 c-0.164-0.107-0.376-0.107-0.542-0.002c-0.166,0.106-0.254,0.299-0.225,0.494c0.009,0.062,1.003,6.282,7.584,7.295 c0.025,0.004,0.052,0.006,0.077,0.006c0.242,0,0.455-0.177,0.493-0.424c0.042-0.273-0.146-0.528-0.418-0.57 c-4.26-0.656-5.877-3.668-6.453-5.338c4.77,2.5,8.299,0.319,8.457,0.219c0.208-0.133,0.288-0.397,0.189-0.623l-1.157-2.639 l3.38-1.116c0.134-0.044,0.243-0.142,0.3-0.271C257.236,32.247,257.237,32.1,257.18,31.971z" style="fill: rgb(48, 1, 30);"></path></g><g id="__id263_s6abr12nr"><path d="M231.118,3.683c-0.661,1.191-0.989,2.591-0.863,4.054l14.227-1.205l9.084-0.816 c0.785-0.068,1.358-0.774,1.271-1.553c-0.054-0.47-0.336-0.855-0.715-1.066c-0.307-0.17-0.677-0.226-1.048-0.125l-8.792,2.402 c-0.481-1.943-1.764-3.544-3.449-4.478c-1.197-0.664-2.597-0.992-4.066-0.87C234.299,0.231,232.236,1.667,231.118,3.683z" style="fill: rgb(43, 81, 154);"></path></g></g><g><g id="__id264_s6abr12nr"><path d="M168.815,287.13c0.051,0.271-0.128,0.532-0.399,0.583c-12.123,2.272-19.494,6.055-22.536,11.562 c-4.271,7.732,0.006,18.557,4.958,31.089c3.359,8.501,7.167,18.137,8.856,28.272c1.296,7.777-0.36,14.085-4.922,18.746 c-6.854,7.003-19.163,8.99-28.281,9.424c-1.618,0.077-3.196,0.109-4.703,0.109c-7.65,0-13.483-0.829-13.553-0.839 c-0.273-0.04-0.462-0.293-0.423-0.566c0.039-0.273,0.289-0.461,0.566-0.424c0.327,0.048,32.958,4.593,45.68-8.404 c4.326-4.421,5.89-10.437,4.649-17.882c-1.672-10.031-5.458-19.614-8.799-28.068c-5.045-12.769-9.403-23.795-4.904-31.94 c3.239-5.866,10.62-9.699,23.227-12.062C168.508,286.68,168.764,286.858,168.815,287.13z M143.522,371.428 c12.916-8.621-17.252-60.92-18.542-63.142c-0.139-0.24-0.445-0.321-0.683-0.182c-0.239,0.139-0.32,0.445-0.182,0.684 c0.079,0.135,7.903,13.651,14.077,28.019c8.079,18.798,9.729,30.482,4.775,33.789c-12.368,8.254-55.84,1.748-56.277,1.681 c-0.272-0.045-0.528,0.146-0.569,0.419c-0.042,0.272,0.146,0.528,0.419,0.569c1.088,0.166,16.999,2.547,32.233,2.547 C128.778,375.812,138.492,374.785,143.522,371.428z M242.218,292.018c-8.264-7.006-21.252-10.309-35.002-13.806 c-15.194-3.864-30.906-7.86-42.101-17.185c-4.752-3.958-7.145-8.679-7.111-14.03c0.093-14.688,18.324-29.655,18.508-29.804 c0.214-0.174,0.247-0.489,0.073-0.703c-0.173-0.215-0.488-0.248-0.703-0.073c-0.767,0.622-18.78,15.411-18.878,30.573 c-0.036,5.665,2.478,10.646,7.471,14.806c11.369,9.471,27.192,13.494,42.494,17.386c13.635,3.468,26.514,6.743,34.602,13.601 c7.024,5.955,9.212,17.195,5.573,28.637c-6.796,21.368-27.359,30.572-44.337,32.061c-0.275,0.024-0.479,0.267-0.455,0.542 c0.023,0.26,0.241,0.456,0.498,0.456c0.015,0,0.029-0.001,0.044-0.002c17.299-1.517,38.259-10.917,45.204-32.754 C251.859,309.895,249.551,298.236,242.218,292.018z" style="fill: rgb(255, 166, 48);"></path></g><g id="__id265_s6abr12nr"><path d="M266.778,122.199c-1.535-1.837-3.694-2.966-6.078-3.18l-45.962-4.118c-2.39-0.215-4.71,0.514-6.546,2.049 c-1.837,1.535-2.966,3.693-3.18,6.078l-5.638,62.923c-0.213,2.384,0.514,4.709,2.049,6.546c1.535,1.837,3.693,2.966,6.078,3.18 l45.96,4.118c0.271,0.024,0.54,0.036,0.807,0.036c4.584,0,8.504-3.512,8.921-8.164l5.638-62.923 C269.041,126.361,268.312,124.036,266.778,122.199z M267.831,128.656l-5.638,62.923c-0.392,4.373-4.255,7.612-8.642,7.22 l-45.961-4.118c-4.373-0.392-7.612-4.268-7.22-8.642l5.638-62.923c0.19-2.118,1.193-4.036,2.825-5.4 c1.632-1.364,3.693-2.014,5.816-1.82l45.961,4.118C264.983,120.406,268.222,124.283,267.831,128.656z M258.222,125.157 l-41.44-3.713c-0.197-0.02-0.363,0.07-0.464,0.225s-0.108,0.353-0.019,0.515l17.897,32.413l-2.025,22.594l-20.222-1.812 c-0.279-0.028-0.518,0.179-0.542,0.454c-0.024,0.275,0.178,0.518,0.454,0.542l20.719,1.856c0,0,0,0,0,0c0,0,0.001,0,0.001,0 l20.719,1.856c0.016,0.001,0.03,0.002,0.046,0.002c0.256,0,0.474-0.195,0.497-0.456c0.024-0.275-0.179-0.518-0.453-0.542 l-20.223-1.812l2.025-22.594l23.373-28.715c0.117-0.143,0.145-0.339,0.073-0.51C258.566,125.291,258.406,125.174,258.222,125.157z M234.788,153.599l-17.158-31.075l39.566,3.545L234.788,153.599z M215.241,184.419c0.101,0.112,0.146,0.251,0.131,0.417 c-0.015,0.168-0.083,0.299-0.203,0.391c-0.123,0.092-0.297,0.128-0.527,0.107l-2.846-0.255l-0.164,1.823l2.379,0.213 c0.221,0.021,0.38,0.085,0.481,0.193c0.099,0.108,0.142,0.245,0.126,0.411c-0.015,0.165-0.082,0.291-0.2,0.378 c-0.119,0.088-0.288,0.122-0.504,0.103l-2.379-0.213l-0.21,2.349c-0.026,0.299-0.113,0.514-0.26,0.646 c-0.148,0.132-0.327,0.188-0.538,0.17c-0.214-0.02-0.381-0.108-0.503-0.266c-0.122-0.158-0.169-0.385-0.143-0.68l0.492-5.486 c0.019-0.207,0.065-0.374,0.138-0.5s0.179-0.213,0.315-0.261c0.137-0.048,0.307-0.063,0.512-0.045l3.404,0.305 C214.971,184.24,215.137,184.307,215.241,184.419z M222.119,186.857c0.022-0.259,0-0.509-0.069-0.749 c-0.067-0.239-0.18-0.454-0.336-0.646c-0.156-0.189-0.342-0.343-0.558-0.456c-0.177-0.102-0.379-0.176-0.606-0.224 c-0.229-0.049-0.505-0.087-0.829-0.116l-2.349-0.21c-0.312-0.028-0.543,0.021-0.694,0.148c-0.152,0.127-0.242,0.346-0.271,0.657 l-0.492,5.485c-0.026,0.289,0.018,0.514,0.132,0.674c0.113,0.16,0.284,0.251,0.515,0.271c0.214,0.02,0.394-0.037,0.539-0.167 c0.146-0.131,0.232-0.348,0.26-0.648l0.205-2.291l0.505,0.046c0.256,0.022,0.467,0.075,0.629,0.159 c0.161,0.083,0.316,0.224,0.464,0.424c0.147,0.199,0.309,0.484,0.485,0.857l0.491,1.015c0.117,0.239,0.209,0.421,0.277,0.544 c0.069,0.124,0.156,0.229,0.26,0.315c0.103,0.086,0.235,0.136,0.397,0.15c0.136,0.013,0.259-0.004,0.367-0.048 s0.197-0.11,0.267-0.197c0.066-0.087,0.105-0.177,0.113-0.271c0.009-0.091-0.027-0.261-0.108-0.512 c-0.08-0.251-0.198-0.534-0.355-0.851c-0.156-0.316-0.339-0.618-0.549-0.905c-0.209-0.286-0.437-0.509-0.68-0.668 c0.622-0.078,1.097-0.264,1.426-0.554C221.882,187.8,222.071,187.389,222.119,186.857z M220.404,187.397 c-0.137,0.134-0.326,0.22-0.568,0.258c-0.241,0.039-0.536,0.043-0.884,0.012l-1.293-0.116l0.176-1.96l1.332,0.12 c0.496,0.044,0.826,0.109,0.987,0.196c0.171,0.09,0.302,0.216,0.388,0.375c0.087,0.16,0.122,0.339,0.104,0.536 C220.624,187.07,220.543,187.264,220.404,187.397z M227.573,186.605c-0.067-0.237-0.123-0.428-0.168-0.571 c-0.044-0.143-0.103-0.277-0.174-0.405c-0.072-0.127-0.172-0.234-0.3-0.323c-0.128-0.088-0.292-0.142-0.493-0.159 c-0.197-0.018-0.367,0.005-0.509,0.069s-0.259,0.154-0.352,0.271c-0.096,0.115-0.187,0.264-0.275,0.443 c-0.091,0.179-0.167,0.334-0.23,0.462l-2.239,4.467c-0.091,0.178-0.157,0.317-0.198,0.419c-0.042,0.101-0.067,0.199-0.076,0.297 c-0.016,0.169,0.042,0.325,0.168,0.471c0.128,0.146,0.282,0.227,0.464,0.242c0.214,0.02,0.374-0.029,0.479-0.146 c0.106-0.117,0.241-0.348,0.406-0.691l0.422-0.884l2.898,0.26l0.26,0.925c0.036,0.114,0.079,0.246,0.13,0.396 c0.049,0.15,0.099,0.263,0.148,0.337c0.049,0.074,0.111,0.136,0.189,0.184c0.077,0.048,0.172,0.077,0.286,0.087 c0.194,0.018,0.366-0.037,0.517-0.162s0.233-0.271,0.248-0.437c0.014-0.159-0.036-0.419-0.15-0.783L227.573,186.605z M224.973,189.515l1.319-2.848l0.811,3.038L224.973,189.515z M231.432,189.27c-0.075,0.836,0.059,1.497,0.404,1.982 c0.342,0.485,0.858,0.759,1.546,0.82c0.334,0.029,0.651,0.014,0.953-0.047c0.301-0.062,0.609-0.16,0.925-0.295l0.104-1.157 l-1.118-0.101c-0.27-0.023-0.469-0.083-0.6-0.176c-0.13-0.094-0.187-0.238-0.17-0.433c0.015-0.159,0.084-0.285,0.209-0.378 c0.124-0.094,0.286-0.132,0.483-0.114l1.639,0.147c0.201,0.018,0.369,0.051,0.506,0.099c0.136,0.049,0.241,0.139,0.316,0.269 c0.075,0.131,0.102,0.32,0.079,0.566l-0.122,1.366c-0.017,0.182-0.047,0.326-0.093,0.431c-0.046,0.105-0.119,0.198-0.223,0.276 c-0.104,0.079-0.234,0.152-0.39,0.221c-0.453,0.194-0.883,0.327-1.291,0.398c-0.409,0.071-0.849,0.086-1.318,0.044 c-0.548-0.049-1.04-0.178-1.476-0.387c-0.435-0.209-0.797-0.488-1.086-0.838c-0.29-0.35-0.498-0.76-0.628-1.232 c-0.128-0.473-0.168-0.991-0.118-1.555c0.05-0.555,0.179-1.055,0.385-1.501c0.206-0.445,0.484-0.814,0.834-1.106 c0.351-0.292,0.763-0.502,1.238-0.632c0.476-0.128,1.005-0.167,1.589-0.115c0.479,0.043,0.899,0.146,1.257,0.307 c0.358,0.161,0.644,0.35,0.856,0.564c0.214,0.216,0.368,0.437,0.466,0.665c0.097,0.228,0.138,0.425,0.123,0.594 c-0.017,0.182-0.098,0.33-0.244,0.446s-0.313,0.165-0.501,0.148c-0.104-0.009-0.2-0.042-0.292-0.1 c-0.092-0.057-0.165-0.132-0.223-0.226c-0.153-0.295-0.285-0.519-0.396-0.673c-0.111-0.153-0.266-0.288-0.467-0.404 c-0.199-0.116-0.463-0.188-0.787-0.218c-0.334-0.029-0.637,0.001-0.91,0.093c-0.272,0.092-0.512,0.238-0.717,0.44 c-0.208,0.202-0.374,0.458-0.501,0.767S231.466,188.884,231.432,189.27z M239.757,186.557c0.12,0.156,0.168,0.382,0.142,0.677 l-0.503,5.617c-0.026,0.296-0.113,0.51-0.261,0.644s-0.331,0.191-0.548,0.172c-0.207-0.019-0.371-0.108-0.493-0.268 c-0.121-0.159-0.169-0.385-0.143-0.677l0.503-5.617c0.026-0.292,0.112-0.505,0.258-0.639c0.147-0.134,0.324-0.191,0.535-0.173 C239.464,186.313,239.635,186.401,239.757,186.557z M245.916,193.175c0.113,0.125,0.163,0.273,0.147,0.445 c-0.016,0.175-0.09,0.312-0.223,0.408c-0.134,0.098-0.318,0.137-0.555,0.115l-3.487-0.312c-0.314-0.028-0.534-0.118-0.66-0.271 c-0.125-0.151-0.173-0.383-0.146-0.694l0.492-5.49c0.026-0.292,0.111-0.505,0.255-0.64c0.146-0.133,0.324-0.191,0.538-0.172 c0.217,0.02,0.387,0.107,0.51,0.264c0.12,0.156,0.168,0.382,0.142,0.677l-0.465,5.189l2.928,0.262 C245.626,192.978,245.799,193.051,245.916,193.175z M252.794,187.783c0.103,0.112,0.147,0.251,0.132,0.417 c-0.015,0.168-0.083,0.299-0.204,0.391s-0.296,0.128-0.526,0.107l-3.254-0.292l-0.156,1.751l2.996,0.269 c0.221,0.02,0.38,0.084,0.479,0.192s0.143,0.244,0.128,0.406s-0.08,0.29-0.195,0.382c-0.117,0.093-0.286,0.129-0.51,0.109 l-2.996-0.269l-0.182,2.027l3.365,0.302c0.227,0.021,0.393,0.089,0.498,0.204c0.106,0.116,0.151,0.262,0.135,0.437 c-0.015,0.169-0.084,0.3-0.209,0.396c-0.125,0.095-0.301,0.132-0.527,0.112l-3.925-0.352c-0.313-0.028-0.534-0.119-0.66-0.271 c-0.124-0.151-0.173-0.384-0.146-0.694l0.48-5.359c0.019-0.208,0.065-0.374,0.138-0.5c0.073-0.126,0.18-0.213,0.314-0.262 c0.139-0.047,0.308-0.062,0.512-0.044l3.813,0.341C252.526,187.606,252.692,187.672,252.794,187.783z M235.378,261.194 c0.12,0.248,0.017,0.547-0.232,0.668c-0.07,0.034-0.145,0.05-0.218,0.05c-0.186,0-0.363-0.104-0.45-0.282l-19.86-40.991 c-0.12-0.248-0.016-0.547,0.232-0.668c0.25-0.119,0.547-0.016,0.668,0.232L235.378,261.194z M124.049,167.597 c0.026-0.274,0.26-0.478,0.544-0.452l57.285,5.312c0.275,0.026,0.477,0.269,0.452,0.544c-0.024,0.259-0.242,0.454-0.498,0.454 c-0.015,0-0.031,0-0.047-0.002l-57.285-5.312C124.226,168.115,124.024,167.872,124.049,167.597z M123.57,172.769 c0.026-0.274,0.259-0.475,0.544-0.452l57.285,5.312c0.275,0.026,0.477,0.269,0.452,0.544c-0.024,0.259-0.242,0.454-0.498,0.454 c-0.015,0-0.031,0-0.047-0.002l-57.285-5.312C123.747,173.287,123.544,173.044,123.57,172.769z M152.278,180.134l-28.643-2.656 c-0.134-0.015-0.264,0.029-0.366,0.113c-0.102,0.085-0.167,0.207-0.179,0.338l-1.551,16.726c-0.025,0.275,0.177,0.519,0.452,0.544 l28.643,2.656c0.016,0.001,0.032,0.002,0.047,0.002c0.255,0,0.473-0.194,0.498-0.454l1.551-16.726 c0.012-0.132-0.029-0.264-0.113-0.366C152.532,180.211,152.41,180.147,152.278,180.134z M150.229,196.814l-27.647-2.564 l1.458-15.73l27.647,2.564L150.229,196.814z M180.875,183.789c-0.015,0-0.031,0-0.047-0.002l-23.294-2.16 c-0.275-0.026-0.477-0.269-0.452-0.544c0.026-0.274,0.264-0.473,0.544-0.452l23.294,2.16c0.275,0.026,0.477,0.269,0.452,0.544 C181.348,183.594,181.13,183.789,180.875,183.789z M180.347,189.486c-0.015,0-0.031,0-0.047-0.002l-23.294-2.16 c-0.275-0.026-0.477-0.269-0.452-0.544c0.026-0.274,0.26-0.472,0.544-0.452l23.294,2.16c0.275,0.026,0.477,0.269,0.452,0.544 C180.82,189.292,180.602,189.486,180.347,189.486z M179.852,194.817c-0.015,0-0.031,0-0.047-0.002l-23.294-2.16 c-0.275-0.026-0.477-0.269-0.452-0.544c0.026-0.274,0.257-0.471,0.544-0.452l23.294,2.16c0.275,0.026,0.477,0.269,0.452,0.544 C180.325,194.623,180.107,194.817,179.852,194.817z M179.821,200.061c-0.024,0.259-0.242,0.454-0.498,0.454 c-0.015,0-0.031,0-0.047-0.002l-23.294-2.16c-0.275-0.026-0.477-0.269-0.452-0.544c0.026-0.274,0.262-0.47,0.544-0.452l23.294,2.16 C179.645,199.542,179.847,199.785,179.821,200.061z M193.058,334.995c0.125,0.246,0.026,0.547-0.221,0.672 c-0.072,0.036-0.149,0.054-0.225,0.054c-0.183,0-0.358-0.101-0.447-0.274l-38.68-76.441c-0.125-0.246-0.026-0.547,0.221-0.672 c0.246-0.124,0.546-0.025,0.672,0.221L193.058,334.995z" style="fill: rgb(216, 219, 226);"></path></g></g><g id="__id266_s6abr12nr"><path d="M216.093,271.937c-9.656-2.571-19.64-5.23-31.189-12.739c-5.836-3.794-8.927-8.484-9.188-13.941 c-0.644-13.446,15.881-26.755,16.584-27.315c0.217-0.173,0.53-0.137,0.703,0.08c0.172,0.216,0.136,0.531-0.08,0.703 c-0.168,0.134-16.829,13.553-16.208,26.486c0.246,5.117,3.184,9.542,8.734,13.15c11.416,7.422,21.322,10.06,30.901,12.61 c10.292,2.74,20.012,5.329,30.221,13.643c0.215,0.175,0.247,0.489,0.072,0.703c-0.099,0.122-0.243,0.185-0.388,0.185 c-0.111,0-0.223-0.037-0.315-0.112C235.897,277.211,226.278,274.649,216.093,271.937z M258.007,307.789 c-0.031-0.275-0.285-0.471-0.554-0.44c-0.274,0.031-0.472,0.279-0.44,0.554c2.438,21.328-4.902,37.545-21.816,48.202 c-12.651,7.971-26.215,9.66-26.351,9.677c-0.274,0.032-0.47,0.281-0.438,0.555c0.03,0.255,0.246,0.441,0.496,0.441 c0.02,0,0.04-0.001,0.06-0.004c0.137-0.016,13.896-1.726,26.737-9.806C247.586,349.489,261.105,334.885,258.007,307.789z M286.683,365.488c0.275-0.017,0.485-0.254,0.469-0.529s-0.229-0.495-0.529-0.469c-33.735,2.043-34.461,59.632-34.464,60.213 c-0.002,0.276,0.221,0.501,0.497,0.503c0.001,0,0.002,0,0.003,0c0.274,0,0.498-0.222,0.5-0.497 C253.162,424.136,253.878,367.474,286.683,365.488z M295.979,382.68c-8.133-2.167-14.988-1.182-20.373,2.929 c-12.574,9.596-12.87,32.583-12.877,33.558c-0.002,0.275,0.221,0.501,0.497,0.503c0.001,0,0.002,0,0.003,0 c0.274,0,0.498-0.222,0.5-0.497c0.002-0.233,0.296-23.468,12.483-32.769c5.129-3.913,11.694-4.84,19.509-2.757 c0.27,0.073,0.541-0.089,0.612-0.354C296.405,383.026,296.246,382.752,295.979,382.68z" style="fill: rgb(255, 166, 48);"></path></g></svg>